# Blender 3.4.1
# www.blender.org
o Cylinder
v 0.000000 0.144169 -1.916231
v 0.000000 0.322770 -1.916231
v 0.373838 0.144169 -1.879411
v 0.373838 0.322770 -1.879411
v 0.733310 0.144169 -1.770366
v 0.733310 0.322770 -1.770366
v 1.064601 0.144169 -1.593288
v 1.064601 0.322770 -1.593288
v 1.354980 0.144169 -1.354980
v 1.354980 0.322770 -1.354980
v 1.593288 0.144169 -1.064601
v 1.593288 0.322770 -1.064601
v 1.770366 0.144169 -0.733310
v 1.770366 0.322770 -0.733310
v 1.879411 0.144169 -0.373838
v 1.879411 0.322770 -0.373838
v 1.916231 0.144169 0.000000
v 1.916231 0.322770 0.000000
v 1.879411 0.144169 0.373838
v 1.879411 0.322770 0.373838
v 1.770366 0.144169 0.733310
v 1.770366 0.322770 0.733310
v 1.593288 0.144169 1.064601
v 1.593288 0.322770 1.064601
v 1.354980 0.144169 1.354980
v 1.354980 0.322770 1.354980
v 1.064601 0.144169 1.593288
v 1.064601 0.322770 1.593288
v 0.733310 0.144169 1.770366
v 0.733310 0.322770 1.770366
v 0.373838 0.144169 1.879411
v 0.373838 0.322770 1.879411
v 0.000000 0.144169 1.916231
v 0.000000 0.322770 1.916231
v -0.373838 0.144169 1.879411
v -0.373838 0.322770 1.879411
v -0.733310 0.144169 1.770366
v -0.733310 0.322770 1.770366
v -1.064601 0.144169 1.593288
v -1.064601 0.322770 1.593288
v -1.354980 0.144169 1.354980
v -1.354980 0.322770 1.354980
v -1.593288 0.144169 1.064601
v -1.593288 0.322770 1.064601
v -1.770366 0.144169 0.733310
v -1.770366 0.322770 0.733310
v -1.879411 0.144169 0.373838
v -1.879411 0.322770 0.373838
v -1.916231 0.144169 0.000000
v -1.916231 0.322770 0.000000
v -1.879411 0.144169 -0.373838
v -1.879411 0.322770 -0.373838
v -1.770366 0.144169 -0.733310
v -1.770366 0.322770 -0.733310
v -1.593288 0.144169 -1.064601
v -1.593288 0.322770 -1.064601
v -1.354980 0.144169 -1.354980
v -1.354980 0.322770 -1.354980
v -1.064601 0.144169 -1.593288
v -1.064601 0.322770 -1.593288
v -0.733310 0.144169 -1.770366
v -0.733310 0.322770 -1.770366
v -0.373838 0.144169 -1.879411
v -0.373838 0.322770 -1.879411
vn -0.0000 -0.0000 -1.0000
vn 0.1951 -0.0000 -0.9808
vn 0.3827 -0.0000 -0.9239
vn 0.5556 -0.0000 -0.8315
vn 0.7071 -0.0000 -0.7071
vn 0.8315 -0.0000 -0.5556
vn 0.9239 -0.0000 -0.3827
vn 0.9808 -0.0000 -0.1951
vn 1.0000 -0.0000 -0.0000
vn 0.9808 -0.0000 0.1951
vn 0.9239 -0.0000 0.3827
vn 0.8315 -0.0000 0.5556
vn 0.7071 -0.0000 0.7071
vn 0.5556 -0.0000 0.8315
vn 0.3827 -0.0000 0.9239
vn 0.1951 -0.0000 0.9808
vn -0.0000 -0.0000 1.0000
vn -0.1951 -0.0000 0.9808
vn -0.3827 -0.0000 0.9239
vn -0.5556 -0.0000 0.8315
vn -0.7071 -0.0000 0.7071
vn -0.8315 -0.0000 0.5556
vn -0.9239 -0.0000 0.3827
vn -0.9808 -0.0000 0.1951
vn -1.0000 -0.0000 -0.0000
vn -0.9808 -0.0000 -0.1951
vn -0.9239 -0.0000 -0.3827
vn -0.8315 -0.0000 -0.5556
vn -0.7071 -0.0000 -0.7071
vn -0.5556 -0.0000 -0.8315
vn -0.3827 -0.0000 -0.9239
vn -0.0000 1.0000 -0.0000
vn -0.1951 -0.0000 -0.9808
vn -0.0000 -1.0000 -0.0000
vt 13.993441 0.000863
vt 0.013838 0.894377
vt 0.153095 0.945696
vt 13.993445 0.767173
vt 14.992917 0.000863
vt 0.011261 0.907331
vt 14.992925 0.767173
vt 0.148041 0.933493
vt 15.992387 0.000863
vt 0.011261 0.920539
vt 15.992394 0.767173
vt 0.145464 0.920539
vt 16.991865 0.000863
vt 0.013838 0.933493
vt 16.991873 0.767173
vt 0.145464 0.907331
vt 17.991339 0.000863
vt 0.018892 0.945696
vt 17.991344 0.767173
vt 0.148041 0.894377
vt 18.990816 0.000863
vt 0.026230 0.956678
vt 18.990826 0.767173
vt 0.153095 0.882175
vt 19.990288 0.000863
vt 0.035570 0.966017
vt 19.990295 0.767173
vt 0.160433 0.871193
vt 20.989765 0.000863
vt 0.046552 0.973355
vt 20.989773 0.767173
vt 0.169773 0.861854
vt 21.989241 0.000863
vt 0.058754 0.978409
vt 21.989241 0.767173
vt 0.180755 0.854516
vt 22.988710 0.000863
vt -8.994483 0.000863
vt 0.071708 0.980986
vt 22.988718 0.767173
vt -8.994475 0.767173
vt 0.192957 0.849461
vt -7.995011 0.000863
vt 0.084916 0.980986
vt -7.995003 0.767173
vt 0.205911 0.846884
vt -6.995531 0.000863
vt 0.097870 0.978409
vt -6.995524 0.767173
vt 0.219119 0.846884
vt -5.996061 0.000863
vt 0.110073 0.973355
vt -5.996054 0.767173
vt 0.232073 0.849461
vt -4.996583 0.000863
vt 0.121054 0.966017
vt -4.996575 0.767173
vt 0.244276 0.854516
vt -3.997104 0.000863
vt 0.130394 0.956678
vt -3.997105 0.767173
vt 0.255258 0.861854
vt -2.997634 0.000863
vt 0.137732 0.945696
vt -2.997626 0.767173
vt 0.264597 0.871193
vt -1.998155 0.000863
vt 0.142786 0.933493
vt -1.998156 0.767173
vt 0.271935 0.882175
vt -0.998685 0.000863
vt 0.145363 0.920539
vt -0.998677 0.767173
vt 0.276989 0.894377
vt 0.000794 0.000863
vt 0.145363 0.907331
vt 0.000801 0.767173
vt 0.279566 0.907331
vt 1.000265 0.000863
vt 0.142786 0.894377
vt 1.000272 0.767173
vt 0.279566 0.920539
vt 1.999743 0.000863
vt 0.137732 0.882175
vt 1.999750 0.767173
vt 0.276989 0.933493
vt 2.999214 0.000863
vt 0.130394 0.871193
vt 2.999221 0.767173
vt 0.271935 0.945696
vt 3.998693 0.000863
vt 0.121054 0.861854
vt 3.998700 0.767173
vt 0.264597 0.956678
vt 4.998164 0.000863
vt 0.110073 0.854516
vt 4.998171 0.767173
vt 0.255258 0.966017
vt 5.997643 0.000863
vt 0.097870 0.849461
vt 5.997649 0.767173
vt 0.244276 0.973355
vt 6.997120 0.000863
vt 0.084916 0.846884
vt 6.997120 0.767173
vt 0.232073 0.978409
vt 7.996589 0.000863
vt 0.071708 0.846884
vt 7.996597 0.767173
vt 0.219119 0.980986
vt 8.996060 0.000863
vt 0.058754 0.849461
vt 8.996076 0.767173
vt 0.205911 0.980986
vt 9.995541 0.000863
vt 0.046552 0.854516
vt 9.995548 0.767173
vt 0.192957 0.978409
vt 10.995018 0.000863
vt 0.035570 0.861854
vt 10.995018 0.767173
vt 0.180755 0.973355
vt 11.994489 0.000863
vt 0.026230 0.871193
vt 0.169773 0.966017
vt 11.994496 0.767173
vt 12.993967 0.000863
vt 0.018892 0.882175
vt 0.160433 0.956678
vt 12.993967 0.767173
s 1
f 1/1/1 2/4/1 4/7/2 3/5/2
f 3/5/2 4/7/2 6/11/3 5/9/3
f 5/9/3 6/11/3 8/15/4 7/13/4
f 7/13/4 8/15/4 10/19/5 9/17/5
f 9/17/5 10/19/5 12/23/6 11/21/6
f 11/21/6 12/23/6 14/27/7 13/25/7
f 13/25/7 14/27/7 16/31/8 15/29/8
f 15/29/8 16/31/8 18/35/9 17/33/9
f 17/33/9 18/35/9 20/40/10 19/37/10
f 19/38/10 20/41/10 22/45/11 21/43/11
f 21/43/11 22/45/11 24/49/12 23/47/12
f 23/47/12 24/49/12 26/53/13 25/51/13
f 25/51/13 26/53/13 28/57/14 27/55/14
f 27/55/14 28/57/14 30/61/15 29/59/15
f 29/59/15 30/61/15 32/65/16 31/63/16
f 31/63/16 32/65/16 34/69/17 33/67/17
f 33/67/17 34/69/17 36/73/18 35/71/18
f 35/71/18 36/73/18 38/77/19 37/75/19
f 37/75/19 38/77/19 40/81/20 39/79/20
f 39/79/20 40/81/20 42/85/21 41/83/21
f 41/83/21 42/85/21 44/89/22 43/87/22
f 43/87/22 44/89/22 46/93/23 45/91/23
f 45/91/23 46/93/23 48/97/24 47/95/24
f 47/95/24 48/97/24 50/101/25 49/99/25
f 49/99/25 50/101/25 52/105/26 51/103/26
f 51/103/26 52/105/26 54/109/27 53/107/27
f 53/107/27 54/109/27 56/113/28 55/111/28
f 55/111/28 56/113/28 58/117/29 57/115/29
f 57/115/29 58/117/29 60/121/30 59/119/30
f 59/119/30 60/121/30 62/126/31 61/123/31
f 4/8/32 2/3/32 64/129/32 62/125/32 60/122/32 58/118/32 56/114/32 54/110/32 52/106/32 50/102/32 48/98/32 46/94/32 44/90/32 42/86/32 40/82/32 38/78/32 36/74/32 34/70/32 32/66/32 30/62/32 28/58/32 26/54/32 24/50/32 22/46/32 20/42/32 18/36/32 16/32/32 14/28/32 12/24/32 10/20/32 8/16/32 6/12/32
f 61/123/31 62/126/31 64/130/33 63/127/33
f 63/127/33 64/130/33 2/4/1 1/1/1
f 1/2/34 3/6/34 5/10/34 7/14/34 9/18/34 11/22/34 13/26/34 15/30/34 17/34/34 19/39/34 21/44/34 23/48/34 25/52/34 27/56/34 29/60/34 31/64/34 33/68/34 35/72/34 37/76/34 39/80/34 41/84/34 43/88/34 45/92/34 47/96/34 49/100/34 51/104/34 53/108/34 55/112/34 57/116/34 59/120/34 61/124/34 63/128/34
